<svg width="246" height="246" viewBox="0 0 246 246" fill="none" xmlns="http://www.w3.org/2000/svg">
<circle cx="123" cy="139" r="58.5" stroke="#FF6450" stroke-width="3"/>
<circle cx="123" cy="133" r="88.5" stroke="#FF6450" stroke-width="3"/>
<circle cx="123" cy="123" r="121.5" stroke="#FF6450" stroke-width="3"/>
<path fill-rule="evenodd" clip-rule="evenodd" d="M100.226 98L91 128.5V171.683L94 174.055H106L109 171.683V128.5L100.226 98ZM93.5 129.158C94.5681 129.772 97.9365 131 100.5 131C102.551 131 105.646 129.772 106.5 129.158L102.5 113.5H98L93.5 129.158ZM115.54 98.2368V134.158H119.829V118.763H122.402L129.265 134.158H133.554L125.834 117.908C128.407 117.338 133.554 114.658 133.554 108.5C133.554 100.803 127.549 98.2368 124.976 98.2368H115.54ZM155 139.289H115.54V170.079L112.109 173.5H151.569L155 169.224V139.289ZM124.031 149.096C123.46 149.096 122.943 148.973 122.479 148.728C122.02 148.477 121.657 148.133 121.391 147.696C121.129 147.253 120.999 146.755 120.999 146.2C120.999 145.645 121.129 145.149 121.391 144.712C121.657 144.269 122.02 143.925 122.479 143.68C122.943 143.429 123.463 143.304 124.039 143.304C124.524 143.304 124.961 143.389 125.351 143.56C125.745 143.731 126.076 143.976 126.343 144.296L125.511 145.064C125.132 144.627 124.663 144.408 124.103 144.408C123.756 144.408 123.447 144.485 123.175 144.64C122.903 144.789 122.689 145 122.535 145.272C122.385 145.544 122.311 145.853 122.311 146.2C122.311 146.547 122.385 146.856 122.535 147.128C122.689 147.4 122.903 147.613 123.175 147.768C123.447 147.917 123.756 147.992 124.103 147.992C124.663 147.992 125.132 147.771 125.511 147.328L126.343 148.096C126.076 148.421 125.745 148.669 125.351 148.84C124.956 149.011 124.516 149.096 124.031 149.096ZM132.853 149.096C132.271 149.096 131.746 148.971 131.277 148.72C130.813 148.469 130.447 148.125 130.181 147.688C129.919 147.245 129.789 146.749 129.789 146.2C129.789 145.651 129.919 145.157 130.181 144.72C130.447 144.277 130.813 143.931 131.277 143.68C131.746 143.429 132.271 143.304 132.853 143.304C133.434 143.304 133.957 143.429 134.421 143.68C134.885 143.931 135.25 144.277 135.517 144.72C135.783 145.157 135.917 145.651 135.917 146.2C135.917 146.749 135.783 147.245 135.517 147.688C135.25 148.125 134.885 148.469 134.421 148.72C133.957 148.971 133.434 149.096 132.853 149.096ZM132.853 147.992C133.183 147.992 133.482 147.917 133.749 147.768C134.015 147.613 134.223 147.4 134.373 147.128C134.527 146.856 134.605 146.547 134.605 146.2C134.605 145.853 134.527 145.544 134.373 145.272C134.223 145 134.015 144.789 133.749 144.64C133.482 144.485 133.183 144.408 132.853 144.408C132.522 144.408 132.223 144.485 131.957 144.64C131.69 144.789 131.479 145 131.325 145.272C131.175 145.544 131.101 145.853 131.101 146.2C131.101 146.547 131.175 146.856 131.325 147.128C131.479 147.4 131.69 147.613 131.957 147.768C132.223 147.917 132.522 147.992 132.853 147.992ZM146.375 149H144.983L143.751 145.208L142.479 149H141.095L139.255 143.4H140.599L141.863 147.336L143.183 143.4H144.383L145.663 147.368L146.967 143.4H148.207L146.375 149ZM125.778 159.359C125.197 159.359 124.672 159.234 124.202 158.983C123.738 158.732 123.373 158.388 123.106 157.951C122.845 157.508 122.714 157.012 122.714 156.463C122.714 155.914 122.845 155.42 123.106 154.983C123.373 154.54 123.738 154.194 124.202 153.943C124.672 153.692 125.197 153.567 125.778 153.567C126.36 153.567 126.882 153.692 127.346 153.943C127.81 154.194 128.176 154.54 128.442 154.983C128.709 155.42 128.842 155.914 128.842 156.463C128.842 157.012 128.709 157.508 128.442 157.951C128.176 158.388 127.81 158.732 127.346 158.983C126.882 159.234 126.36 159.359 125.778 159.359ZM125.778 158.255C126.109 158.255 126.408 158.18 126.674 158.031C126.941 157.876 127.149 157.663 127.298 157.391C127.453 157.119 127.53 156.81 127.53 156.463C127.53 156.116 127.453 155.807 127.298 155.535C127.149 155.263 126.941 155.052 126.674 154.903C126.408 154.748 126.109 154.671 125.778 154.671C125.448 154.671 125.149 154.748 124.882 154.903C124.616 155.052 124.405 155.263 124.25 155.535C124.101 155.807 124.026 156.116 124.026 156.463C124.026 156.81 124.101 157.119 124.25 157.391C124.405 157.663 124.616 157.876 124.882 158.031C125.149 158.18 125.448 158.255 125.778 158.255ZM136.424 159.263L135.344 157.703H135.28H134.152V159.263H132.856V153.663H135.28C135.776 153.663 136.206 153.746 136.568 153.911C136.936 154.076 137.219 154.311 137.416 154.615C137.614 154.919 137.712 155.279 137.712 155.695C137.712 156.111 137.611 156.471 137.408 156.775C137.211 157.074 136.928 157.303 136.56 157.463L137.816 159.263H136.424ZM136.4 155.695C136.4 155.38 136.299 155.14 136.096 154.975C135.894 154.804 135.598 154.719 135.208 154.719H134.152V156.671H135.208C135.598 156.671 135.894 156.586 136.096 156.415C136.299 156.244 136.4 156.004 136.4 155.695ZM144.459 159.359C143.889 159.359 143.371 159.236 142.907 158.991C142.449 158.74 142.086 158.396 141.819 157.959C141.558 157.516 141.427 157.018 141.427 156.463C141.427 155.908 141.558 155.412 141.819 154.975C142.086 154.532 142.449 154.188 142.907 153.943C143.371 153.692 143.891 153.567 144.467 153.567C144.953 153.567 145.39 153.652 145.779 153.823C146.174 153.994 146.505 154.239 146.771 154.559L145.939 155.327C145.561 154.89 145.091 154.671 144.531 154.671C144.185 154.671 143.875 154.748 143.603 154.903C143.331 155.052 143.118 155.263 142.963 155.535C142.814 155.807 142.739 156.116 142.739 156.463C142.739 156.81 142.814 157.119 142.963 157.391C143.118 157.663 143.331 157.876 143.603 158.031C143.875 158.18 144.185 158.255 144.531 158.255C145.091 158.255 145.561 158.034 145.939 157.591L146.771 158.359C146.505 158.684 146.174 158.932 145.779 159.103C145.385 159.274 144.945 159.359 144.459 159.359ZM124.362 163.926H123.066V169.526H124.362V163.926ZM135.187 169.526V163.926H133.907V167.326L131.123 163.926H130.051V169.526H131.331V166.126L134.123 169.526H135.187ZM145.84 166.638H144.656V168.278C144.358 168.438 144.022 168.518 143.648 168.518C143.296 168.518 142.982 168.444 142.704 168.294C142.432 168.14 142.219 167.926 142.064 167.654C141.91 167.382 141.832 167.073 141.832 166.726C141.832 166.374 141.91 166.062 142.064 165.79C142.219 165.518 142.435 165.308 142.712 165.158C142.99 165.009 143.307 164.934 143.664 164.934C144.23 164.934 144.712 165.145 145.112 165.566L145.944 164.798C145.672 164.484 145.336 164.244 144.936 164.078C144.536 163.913 144.091 163.83 143.6 163.83C143.014 163.83 142.486 163.956 142.016 164.206C141.547 164.452 141.179 164.796 140.912 165.238C140.651 165.676 140.52 166.172 140.52 166.726C140.52 167.281 140.651 167.78 140.912 168.222C141.179 168.66 141.544 169.004 142.008 169.254C142.472 169.5 142.995 169.622 143.576 169.622C143.982 169.622 144.384 169.561 144.784 169.438C145.184 169.316 145.536 169.14 145.84 168.91V166.638ZM155 98.2368H136.128V101.658H143.848V134.158H148.137V101.658H155V98.2368Z" fill="#FF6450"/>
</svg>
