<svg width="76" height="91" viewBox="0 0 76 91" fill="none" xmlns="http://www.w3.org/2000/svg">
<path fill-rule="evenodd" clip-rule="evenodd" d="M10.7631 0L0 36.1143V87.2465L3.5 90.0553H17.5L21 87.2465V36.1143L10.7631 0ZM2.50001 36.7603C3.8146 37.8655 7.96035 40.076 11.1154 40.076C13.6394 40.076 17.4483 37.8655 18.5 36.7603L13.5769 15.5H8.03846L2.50001 36.7603ZM29.1411 0.281219V42.9375H34.2344V24.6562H37.2905L45.4398 42.9375H50.5332L41.3651 23.6406C44.4212 22.9635 50.5332 19.7812 50.5332 12.4687C50.5332 3.32809 43.4025 0.281219 40.3465 0.281219H29.1411ZM76 49.0313H29.141V85.5938L25.0664 89.6563H71.9253L76 84.5782V49.0313ZM38.597 59.1583C38.0263 59.1583 37.509 59.0356 37.045 58.7903C36.5863 58.5396 36.2237 58.1956 35.957 57.7583C35.6957 57.3156 35.565 56.817 35.565 56.2623C35.565 55.7076 35.6957 55.2116 35.957 54.7743C36.2237 54.3316 36.5863 53.9876 37.045 53.7423C37.509 53.4916 38.029 53.3663 38.605 53.3663C39.0903 53.3663 39.5277 53.4516 39.917 53.6223C40.3117 53.793 40.6423 54.0383 40.909 54.3583L40.077 55.1263C39.6983 54.689 39.229 54.4703 38.669 54.4703C38.3223 54.4703 38.013 54.5476 37.741 54.7023C37.469 54.8516 37.2557 55.0623 37.101 55.3343C36.9517 55.6063 36.877 55.9156 36.877 56.2623C36.877 56.609 36.9517 56.9183 37.101 57.1903C37.2557 57.4623 37.469 57.6756 37.741 57.8303C38.013 57.9796 38.3223 58.0543 38.669 58.0543C39.229 58.0543 39.6983 57.833 40.077 57.3903L40.909 58.1583C40.6423 58.4836 40.3117 58.7316 39.917 58.9023C39.5224 59.073 39.0823 59.1583 38.597 59.1583ZM47.419 59.1583C46.8377 59.1583 46.3123 59.033 45.843 58.7823C45.379 58.5316 45.0137 58.1876 44.747 57.7503C44.4857 57.3076 44.355 56.8116 44.355 56.2623C44.355 55.713 44.4857 55.2196 44.747 54.7823C45.0137 54.3396 45.379 53.993 45.843 53.7423C46.3123 53.4916 46.8377 53.3663 47.419 53.3663C48.0004 53.3663 48.523 53.4916 48.987 53.7423C49.451 53.993 49.8163 54.3396 50.083 54.7823C50.3497 55.2196 50.483 55.713 50.483 56.2623C50.483 56.8116 50.3497 57.3076 50.083 57.7503C49.8163 58.1876 49.451 58.5316 48.987 58.7823C48.523 59.033 48.0004 59.1583 47.419 59.1583ZM47.419 58.0543C47.7497 58.0543 48.0483 57.9796 48.315 57.8303C48.5817 57.6756 48.7897 57.4623 48.939 57.1903C49.0937 56.9183 49.171 56.609 49.171 56.2623C49.171 55.9156 49.0937 55.6063 48.939 55.3343C48.7897 55.0623 48.5817 54.8516 48.315 54.7023C48.0483 54.5476 47.7497 54.4703 47.419 54.4703C47.0883 54.4703 46.7897 54.5476 46.523 54.7023C46.2563 54.8516 46.0457 55.0623 45.891 55.3343C45.7417 55.6063 45.667 55.9156 45.667 56.2623C45.667 56.609 45.7417 56.9183 45.891 57.1903C46.0457 57.4623 46.2563 57.6756 46.523 57.8303C46.7897 57.9796 47.0883 58.0543 47.419 58.0543ZM60.9415 59.0623H59.5495L58.3175 55.2703L57.0455 59.0623H55.6615L53.8215 53.4623H55.1655L56.4295 57.3983L57.7495 53.4623H58.9495L60.2295 57.4303L61.5335 53.4623H62.7735L60.9415 59.0623ZM40.6663 71.3458C40.085 71.3458 39.5597 71.2205 39.0903 70.9698C38.6263 70.7192 38.261 70.3752 37.9943 69.9378C37.733 69.4952 37.6023 68.9992 37.6023 68.4498C37.6023 67.9005 37.733 67.4072 37.9943 66.9698C38.261 66.5272 38.6263 66.1805 39.0903 65.9298C39.5597 65.6792 40.085 65.5538 40.6663 65.5538C41.2477 65.5538 41.7703 65.6792 42.2343 65.9298C42.6983 66.1805 43.0637 66.5272 43.3303 66.9698C43.597 67.4072 43.7303 67.9005 43.7303 68.4498C43.7303 68.9992 43.597 69.4952 43.3303 69.9378C43.0637 70.3752 42.6983 70.7192 42.2343 70.9698C41.7703 71.2205 41.2477 71.3458 40.6663 71.3458ZM40.6663 70.2418C40.997 70.2418 41.2957 70.1672 41.5623 70.0178C41.829 69.8632 42.037 69.6498 42.1863 69.3778C42.341 69.1058 42.4183 68.7965 42.4183 68.4498C42.4183 68.1032 42.341 67.7938 42.1863 67.5218C42.037 67.2498 41.829 67.0392 41.5623 66.8898C41.2957 66.7352 40.997 66.6578 40.6663 66.6578C40.3357 66.6578 40.037 66.7352 39.7703 66.8898C39.5037 67.0392 39.293 67.2498 39.1383 67.5218C38.989 67.7938 38.9143 68.1032 38.9143 68.4498C38.9143 68.7965 38.989 69.1058 39.1383 69.3778C39.293 69.6498 39.5037 69.8632 39.7703 70.0178C40.037 70.1672 40.3357 70.2418 40.6663 70.2418ZM51.3123 71.2498L50.2323 69.6898H50.1683H49.0403V71.2498H47.7443V65.6498H50.1683C50.6643 65.6498 51.0937 65.7325 51.4563 65.8978C51.8243 66.0632 52.107 66.2978 52.3043 66.6018C52.5017 66.9058 52.6003 67.2658 52.6003 67.6818C52.6003 68.0978 52.499 68.4578 52.2963 68.7618C52.099 69.0605 51.8163 69.2898 51.4483 69.4498L52.7043 71.2498H51.3123ZM51.2883 67.6818C51.2883 67.3672 51.187 67.1272 50.9843 66.9618C50.7817 66.7912 50.4857 66.7058 50.0963 66.7058H49.0403V68.6578H50.0963C50.4857 68.6578 50.7817 68.5725 50.9843 68.4018C51.187 68.2312 51.2883 67.9912 51.2883 67.6818ZM59.3471 71.3458C58.7765 71.3458 58.2591 71.2232 57.7951 70.9778C57.3365 70.7272 56.9738 70.3832 56.7071 69.9458C56.4458 69.5032 56.3151 69.0045 56.3151 68.4498C56.3151 67.8952 56.4458 67.3992 56.7071 66.9618C56.9738 66.5192 57.3365 66.1752 57.7951 65.9298C58.2591 65.6792 58.7791 65.5538 59.3551 65.5538C59.8405 65.5538 60.2778 65.6392 60.6671 65.8098C61.0618 65.9805 61.3925 66.2258 61.6591 66.5458L60.8271 67.3138C60.4485 66.8765 59.9791 66.6578 59.4191 66.6578C59.0725 66.6578 58.7631 66.7352 58.4911 66.8898C58.2191 67.0392 58.0058 67.2498 57.8511 67.5218C57.7018 67.7938 57.6271 68.1032 57.6271 68.4498C57.6271 68.7965 57.7018 69.1058 57.8511 69.3778C58.0058 69.6498 58.2191 69.8632 58.4911 70.0178C58.7631 70.1672 59.0725 70.2418 59.4191 70.2418C59.9791 70.2418 60.4485 70.0205 60.8271 69.5778L61.6591 70.3458C61.3925 70.6712 61.0618 70.9192 60.6671 71.0898C60.2725 71.2605 59.8325 71.3458 59.3471 71.3458ZM39.2503 77.8373H37.9543V83.4373H39.2503V77.8373ZM50.0753 83.4373V77.8373H48.7953V81.2374L46.0113 77.8373H44.9393V83.4373H46.2193V80.0374L49.0113 83.4373H50.0753ZM60.7283 80.5493H59.5443V82.1893C59.2456 82.3493 58.9096 82.4294 58.5363 82.4294C58.1843 82.4294 57.8696 82.3547 57.5923 82.2054C57.3203 82.0507 57.1069 81.8373 56.9523 81.5654C56.7976 81.2934 56.7203 80.984 56.7203 80.6374C56.7203 80.2853 56.7976 79.9734 56.9523 79.7013C57.1069 79.4294 57.3229 79.2187 57.6003 79.0694C57.8776 78.92 58.1949 78.8454 58.5523 78.8454C59.1176 78.8454 59.6003 79.056 60.0003 79.4773L60.8323 78.7094C60.5603 78.3947 60.2243 78.1547 59.8243 77.9893C59.4243 77.824 58.9789 77.7413 58.4883 77.7413C57.9016 77.7413 57.3736 77.8667 56.9043 78.1173C56.4349 78.3627 56.0669 78.7067 55.8003 79.1494C55.5389 79.5867 55.4083 80.0827 55.4083 80.6374C55.4083 81.192 55.5389 81.6907 55.8003 82.1333C56.0669 82.5707 56.4323 82.9147 56.8963 83.1654C57.3603 83.4107 57.8829 83.5334 58.4643 83.5334C58.8696 83.5334 59.2723 83.472 59.6723 83.3493C60.0723 83.2267 60.4243 83.0507 60.7283 82.8214V80.5493ZM76 0.281219H53.5892V4.34372H62.7573V42.9375H67.8506V4.34372H76V0.281219Z" fill="white"/>
</svg>
