<svg width="73" height="57" viewBox="0 0 73 57" fill="none" xmlns="http://www.w3.org/2000/svg">
<path d="M45.2393 51.5641V51.3518H31.9356V51.5641L31.9379 51.6691C31.9379 52.8455 31.4727 53.9737 30.6447 54.8056C29.8167 55.6374 28.6936 56.1048 27.5227 56.1048C26.3517 56.1048 25.2286 55.6374 24.4006 54.8056C23.5726 53.9737 23.1074 52.8455 23.1074 51.6691L23.1097 51.5594V51.3518H21.5931C20.9465 51.3518 20.3193 51.1296 19.8157 50.7222C19.3121 50.3147 18.9624 49.7465 18.8246 49.1118L18.8223 49.0931L9.95697 6.92277L2.38304 5.65577C1.66169 5.50939 1.02524 5.08703 0.608142 4.47793C0.191042 3.86883 0.02596 3.1207 0.147774 2.39158C0.269588 1.66246 0.668757 1.00947 1.26095 0.570558C1.85314 0.131647 2.59197 -0.058806 3.32136 0.0394352L3.30742 0.0371019L12.7859 1.62377C13.9402 1.8221 14.846 2.69944 15.0876 3.8241L15.0899 3.84277L16.6971 11.4588L44.3474 13.7734C44.1767 14.686 44.0896 15.6123 44.0873 16.5408V16.5501C44.0873 17.4881 44.1686 18.4074 44.3265 19.3011L44.3126 19.2078C43.5517 19.4487 42.9058 19.9629 42.4983 20.652C42.0909 21.3411 41.9504 22.1569 42.1038 22.9434L42.1015 22.9224L43.7714 35.0324C43.8736 35.8094 44.2267 36.4908 44.7423 37.0041C45.2114 37.4731 45.8548 37.7671 46.5678 37.7741H46.5701C46.7281 37.7741 46.8837 37.7578 47.0323 37.7298L47.0161 37.7321C47.808 37.5242 48.4916 37.0216 48.9284 36.3263C49.3653 35.6309 49.5227 34.7947 49.3688 33.9871L49.3712 34.0081L48.4607 27.4234C49.9057 28.9339 51.6399 30.135 53.559 30.9546C55.4781 31.7743 57.5424 32.1954 59.6277 32.1928C59.7276 32.1928 59.8274 32.1928 59.925 32.1788L60.141 32.1671L58.5872 41.2718C58.5499 41.4925 58.4363 41.6929 58.2663 41.8376C58.0964 41.9823 57.881 42.0621 57.6581 42.0628H23.133L23.8925 45.6724H56.7732C57.5049 45.7016 58.197 46.014 58.7046 46.5441C59.2123 47.0743 59.4961 47.7812 59.4967 48.5169C59.4973 49.2525 59.2146 49.9599 58.7079 50.4909C58.2011 51.0219 57.5095 51.3354 56.7779 51.3658H54.0698V51.5781C54.0698 52.7545 53.6046 53.8827 52.7766 54.7146C51.9485 55.5464 50.8255 56.0138 49.6545 56.0138C48.4835 56.0138 47.3605 55.5464 46.5325 54.7146C45.7045 53.8827 45.2393 52.7545 45.2393 51.5781V51.5641ZM48.3934 51.5641C48.3938 51.7383 48.4303 51.9104 48.5005 52.0696C48.5706 52.2289 48.6729 52.3718 48.8009 52.4892C48.9289 52.6067 49.0798 52.6961 49.244 52.7519C49.4082 52.8078 49.5821 52.8287 49.7548 52.8135C49.9275 52.7982 50.0951 52.7471 50.2471 52.6634C50.3991 52.5797 50.5321 52.4652 50.6378 52.3271C50.7434 52.189 50.8193 52.0304 50.8608 51.8613C50.9022 51.6922 50.9083 51.5163 50.8785 51.3448V51.3518H48.4166C48.4041 51.4219 48.3979 51.4929 48.398 51.5641H48.3934ZM26.2638 51.5641C26.2643 51.7383 26.3008 51.9104 26.3709 52.0696C26.4411 52.2289 26.5434 52.3718 26.6714 52.4892C26.7994 52.6067 26.9502 52.6961 27.1144 52.7519C27.2786 52.8078 27.4526 52.8287 27.6252 52.8135C27.7979 52.7982 27.9656 52.7471 28.1175 52.6634C28.2695 52.5797 28.4026 52.4652 28.5082 52.3271C28.6138 52.189 28.6898 52.0304 28.7312 51.8613C28.7727 51.6922 28.7787 51.5163 28.749 51.3448V51.3518H26.2847C26.2731 51.4204 26.2676 51.4899 26.2685 51.5594V51.5641H26.2638ZM35.2452 19.1891C34.453 19.3965 33.7691 19.899 33.3321 20.5945C32.8952 21.29 32.738 22.1264 32.8925 22.9341L32.8901 22.9131L34.5601 35.0231C34.6623 35.8001 35.0153 36.4814 35.5309 36.9948C36.0001 37.4638 36.6434 37.7578 37.3565 37.7648H37.3588C37.5167 37.7648 37.6723 37.7484 37.821 37.7204L37.8047 37.7228C38.5966 37.5148 39.2802 37.0123 39.7171 36.3169C40.1539 35.6216 40.3114 34.7854 40.1575 33.9778L40.1598 33.9988L38.4899 21.8888C38.3936 21.1414 38.0519 20.4476 37.519 19.9171C37.034 19.4304 36.379 19.1533 35.6935 19.1448H35.6912C35.5309 19.1448 35.3753 19.1611 35.2243 19.1914L35.2406 19.1891H35.2452ZM26.0339 19.1891C25.239 19.3956 24.5527 19.8991 24.115 20.5969C23.6773 21.2947 23.5212 22.134 23.6788 22.9434L23.6765 22.9224L25.3464 35.0324C25.4486 35.8094 25.8016 36.4908 26.3172 37.0041C26.7864 37.4731 27.4297 37.7671 28.1428 37.7741H28.1451C28.303 37.7741 28.4587 37.7578 28.6073 37.7298L28.591 37.7321C29.3837 37.5252 30.0682 37.0229 30.5056 36.3274C30.943 35.6318 31.1005 34.7951 30.9461 33.9871L30.9485 34.0081L29.2762 21.8911C29.1799 21.1437 28.8383 20.4499 28.3054 19.9194C27.8209 19.4319 27.1655 19.1546 26.4798 19.1471H26.4775C26.3196 19.1471 26.1663 19.1634 26.0176 19.1914L26.0339 19.1891ZM46.447 16.5571C46.4477 13.0421 47.8381 9.67131 50.3126 7.18626C51.5378 5.95579 52.9923 4.97982 54.593 4.31406C56.1937 3.6483 57.9092 3.3058 59.6416 3.3061C61.3741 3.30641 63.0895 3.64952 64.6899 4.31585C66.2903 4.98217 67.7445 5.95866 68.9693 7.18956C70.1941 8.42047 71.1656 9.88167 71.8282 11.4898C72.4909 13.0978 72.8319 14.8213 72.8316 16.5618C72.8306 20.0774 71.4396 23.4487 68.9645 25.9339C66.4894 28.4192 63.1329 29.8149 59.6335 29.8139C56.1341 29.813 52.7783 28.4155 50.3045 25.929C47.8307 23.4424 46.4415 20.0704 46.4424 16.5548L46.447 16.5571ZM50.2259 16.5571C50.2259 17.799 50.4694 19.0288 50.9424 20.1761C51.4155 21.3235 52.1089 22.366 52.983 23.2442C53.8571 24.1224 54.8948 24.819 56.0369 25.2942C57.179 25.7695 58.4031 26.0141 59.6393 26.0141C60.8755 26.0141 62.0996 25.7695 63.2417 25.2942C64.3837 24.819 65.4215 24.1224 66.2956 23.2442C67.1697 22.366 67.8631 21.3235 68.3362 20.1761C68.8092 19.0288 69.0527 17.799 69.0527 16.5571C69.053 14.0483 68.0613 11.6422 66.2957 9.868C64.5302 8.09381 62.1353 7.09691 59.6381 7.0966C57.1409 7.09629 54.7459 8.0926 52.9799 9.86635C51.2139 11.6401 50.2215 14.046 50.2212 16.5548L50.2259 16.5571ZM57.751 20.3394V18.4541H55.8744C55.373 18.4541 54.8921 18.254 54.5376 17.8978C54.183 17.5416 53.9838 17.0585 53.9838 16.5548C53.9838 16.051 54.183 15.5679 54.5376 15.2117C54.8921 14.8555 55.373 14.6554 55.8744 14.6554H57.751V12.7701C57.751 12.2664 57.9502 11.7833 58.3048 11.4271C58.6593 11.0709 59.1402 10.8708 59.6416 10.8708C60.143 10.8708 60.6239 11.0709 60.9785 11.4271C61.333 11.7833 61.5322 12.2664 61.5322 12.7701V14.6554H63.4088C63.9103 14.6554 64.3911 14.8555 64.7457 15.2117C65.1002 15.5679 65.2994 16.051 65.2994 16.5548C65.2994 17.0585 65.1002 17.5416 64.7457 17.8978C64.3911 18.254 63.9103 18.4541 63.4088 18.4541H61.5322V20.3371C61.5322 20.8408 61.333 21.3239 60.9785 21.6801C60.6239 22.0363 60.143 22.2364 59.6416 22.2364C59.1402 22.2364 58.6593 22.0363 58.3048 21.6801C57.9502 21.3239 57.751 20.8408 57.751 20.3371V20.3394Z" fill="#FFBB50"/>
</svg>
