<svg width="40" height="40" viewBox="0 0 40 40" fill="none" xmlns="http://www.w3.org/2000/svg">
<path d="M37.9346 -0.160004H2.06547C1.47524 -0.160004 0.909194 0.0744616 0.491843 0.491813C0.0744922 0.909164 -0.159973 1.47521 -0.159973 2.06544V37.9351C-0.159825 38.5252 0.0747065 39.0911 0.492041 39.5084C0.909376 39.9256 1.47534 40.16 2.06547 40.16H21.376V24.5461H16.1215V18.4611H21.376V13.9733C21.376 8.76528 24.5568 5.93 29.2025 5.93C31.428 5.93 33.3404 6.0952 33.8981 6.16968V11.6123L30.6759 11.614C28.1492 11.614 27.6603 12.8146 27.6603 14.5764V18.4617H33.6859L32.9013 24.5466H27.6603V40.16H37.9352C38.5253 40.1598 39.0912 39.9253 39.5084 39.508C39.9256 39.0906 40.16 38.5247 40.16 37.9346V2.06544C40.16 1.47521 39.9256 0.909164 39.5082 0.491813C39.0909 0.0744616 38.5248 -0.160004 37.9346 -0.160004Z" fill="#FF5094"/>
</svg>
