<svg width="40" height="40" viewBox="0 0 40 40" fill="none" xmlns="http://www.w3.org/2000/svg">
<path d="M19.932 13.3456C16.2553 13.3456 13.2549 16.3358 13.2549 20C13.2549 23.6642 16.2553 26.6544 19.932 26.6544C23.6086 26.6544 26.609 23.6642 26.609 20C26.609 16.3358 23.6086 13.3456 19.932 13.3456ZM39.9581 20C39.9581 17.2444 39.9831 14.5137 39.8279 11.7631C39.6726 8.56818 38.9412 5.73269 36.597 3.39641C34.2478 1.05514 31.4077 0.331289 28.2019 0.176536C25.4369 0.0217821 22.6969 0.0467424 19.937 0.0467424C17.172 0.0467424 14.432 0.0217821 11.6721 0.176536C8.46628 0.331289 5.62115 1.06013 3.27692 3.39641C0.927683 5.73768 0.201373 8.56818 0.0460924 11.7631C-0.109188 14.5187 -0.0841424 17.2494 -0.0841424 20C-0.0841424 22.7506 -0.109188 25.4863 0.0460924 28.2369C0.201373 31.4318 0.932692 34.2673 3.27692 36.6036C5.62616 38.9448 8.46628 39.6687 11.6721 39.8234C14.4371 39.9782 17.177 39.9532 19.937 39.9532C22.702 39.9532 25.4419 39.9782 28.2019 39.8234C31.4077 39.6687 34.2528 38.9398 36.597 36.6036C38.9463 34.2623 39.6726 31.4318 39.8279 28.2369C39.9881 25.4863 39.9581 22.7556 39.9581 20ZM19.932 30.2387C14.2467 30.2387 9.65843 25.666 9.65843 20C9.65843 14.334 14.2467 9.76128 19.932 9.76128C25.6172 9.76128 30.2055 14.334 30.2055 20C30.2055 25.666 25.6172 30.2387 19.932 30.2387ZM30.6263 11.7331C29.2989 11.7331 28.2269 10.6648 28.2269 9.34195C28.2269 8.01905 29.2989 6.95075 30.6263 6.95075C31.9536 6.95075 33.0256 8.01905 33.0256 9.34195C33.026 9.65607 32.9642 9.96719 32.8437 10.2575C32.7233 10.5478 32.5466 10.8115 32.3237 11.0337C32.1008 11.2558 31.8362 11.4319 31.5449 11.5519C31.2536 11.672 30.9414 11.7335 30.6263 11.7331Z" fill="#FF5094"/>
</svg>
