<svg width="23" height="23" viewBox="0 0 23 23" fill="none" xmlns="http://www.w3.org/2000/svg">
<path d="M11.1033 5.04626C12.8592 5.04626 14.5137 5.82467 15.7263 7.04151V7.04511C15.7263 6.46076 16.1194 6.01873 16.6628 6.01873H16.8008C17.6583 6.01873 17.83 6.82732 17.83 7.08248L17.8336 16.1639C17.774 16.759 18.4482 17.0666 18.8226 16.6843C20.2781 15.1871 22.0225 8.97998 17.9163 5.38623C14.0868 2.03182 8.947 2.58598 6.21432 4.46911C3.30985 6.47586 1.45332 10.9084 3.25666 15.0743C5.22603 19.616 10.856 20.9709 14.2068 19.6196C15.9031 18.9347 16.6851 21.2246 14.922 21.9743C12.2648 23.1077 4.85947 22.992 1.40085 17.0027C-0.935809 12.9568 -0.812185 5.83976 5.38775 2.15257C10.1265 -0.669957 16.3789 0.112044 20.148 4.0472C24.0868 8.16492 23.8589 15.8692 20.0136 18.8642C18.2721 20.2263 15.686 18.9016 15.7047 16.9171L15.6853 16.2703C14.4728 17.4713 12.8592 18.1757 11.1033 18.1757C7.62953 18.1757 4.57125 15.1167 4.57125 11.6465C4.57125 8.13904 7.62953 5.0477 11.1033 5.0477V5.04626ZM15.4725 11.3957C15.341 8.85348 13.4543 7.32254 11.1744 7.32254H11.0882C8.46041 7.32254 7.00063 9.39254 7.00063 11.7393C7.00063 14.3706 8.76372 16.0324 11.0774 16.0324C13.6598 16.0324 15.3554 14.1428 15.479 11.9074L15.4725 11.3957Z" fill="white"/>
</svg>
