<svg width="71" height="71" viewBox="0 0 71 71" fill="none" xmlns="http://www.w3.org/2000/svg">
<path d="M16.3773 6.25393C15.8994 6.50501 15.4991 6.88184 15.2196 7.34376C14.9402 7.80568 14.7922 8.33514 14.7916 8.87502L14.7916 62.125C14.7939 62.6639 14.9429 63.192 15.2228 63.6525C15.5027 64.113 15.9029 64.4884 16.3802 64.7385C16.8576 64.9886 17.3941 65.1038 17.932 65.0718C18.4699 65.0398 18.9889 64.8617 19.4332 64.5568L57.8916 37.9318C58.2858 37.6604 58.608 37.2972 58.8307 36.8736C59.0533 36.45 59.1697 35.9786 59.1697 35.5C59.1697 35.0214 59.0533 34.5501 58.8307 34.1264C58.608 33.7028 58.2858 33.3397 57.8916 33.0683L19.4332 6.44326C18.9899 6.13534 18.4705 5.95488 17.9317 5.92149C17.3929 5.88811 16.8553 6.0031 16.3773 6.25393ZM51.0105 35.5L20.7083 56.4805L20.7083 14.5195L51.0105 35.5Z" fill="#5068FF"/>
</svg>
