<svg width="45" height="35" viewBox="0 0 45 35" fill="none" xmlns="http://www.w3.org/2000/svg">
<path d="M28.125 3.4375C28.8709 3.4375 29.5863 3.73382 30.1137 4.26126C30.6412 4.78871 30.9375 5.50408 30.9375 6.25V28.75C30.9375 29.4959 30.6412 30.2113 30.1137 30.7387C29.5863 31.2662 28.8709 31.5625 28.125 31.5625H16.875C16.1291 31.5625 15.4137 31.2662 14.8863 30.7387C14.3588 30.2113 14.0625 29.4959 14.0625 28.75V6.25C14.0625 5.50408 14.3588 4.78871 14.8863 4.26126C15.4137 3.73382 16.1291 3.4375 16.875 3.4375H28.125ZM16.875 0.625C15.3832 0.625 13.9524 1.21763 12.8975 2.27252C11.8426 3.32742 11.25 4.75816 11.25 6.25V28.75C11.25 30.2418 11.8426 31.6726 12.8975 32.7275C13.9524 33.7824 15.3832 34.375 16.875 34.375H28.125C29.6168 34.375 31.0476 33.7824 32.1025 32.7275C33.1574 31.6726 33.75 30.2418 33.75 28.75V6.25C33.75 4.75816 33.1574 3.32742 32.1025 2.27252C31.0476 1.21763 29.6168 0.625 28.125 0.625H16.875Z" fill="white"/>
<path d="M22.5 28.7505C23.2459 28.7505 23.9613 28.4541 24.4888 27.9267C25.0162 27.3992 25.3125 26.6839 25.3125 25.938C25.3125 25.192 25.0162 24.4767 24.4888 23.9492C23.9613 23.4218 23.2459 23.1255 22.5 23.1255C21.7541 23.1255 21.0387 23.4218 20.5113 23.9492C19.9838 24.4767 19.6875 25.192 19.6875 25.938C19.6875 26.6839 19.9838 27.3992 20.5113 27.9267C21.0387 28.4541 21.7541 28.7505 22.5 28.7505ZM4.49721 6.41358C4.66049 6.49997 4.80515 6.61769 4.92293 6.76001C5.0407 6.90232 5.12928 7.06645 5.18361 7.24301C5.23793 7.41957 5.25694 7.6051 5.23954 7.78901C5.22214 7.97291 5.16868 8.15159 5.08221 8.31483C3.58665 11.1453 2.80737 14.2991 2.81252 17.5005C2.81252 20.8192 3.63377 23.9467 5.08221 26.6861C5.25676 27.0158 5.29318 27.4013 5.18347 27.7579C5.07376 28.1144 4.82691 28.4128 4.49721 28.5873C4.16751 28.7619 3.78198 28.7983 3.42543 28.6886C3.06887 28.5789 2.77051 28.332 2.59596 28.0023C0.886027 24.7662 -0.00525248 21.1605 2.32858e-05 17.5005C2.32858e-05 13.712 0.939398 10.1345 2.59596 6.99858C2.68235 6.8353 2.80007 6.69064 2.94239 6.57287C3.0847 6.45509 3.24883 6.36651 3.42539 6.31219C3.60195 6.25786 3.78748 6.23885 3.97139 6.25625C4.15529 6.27365 4.33397 6.32711 4.49721 6.41358V6.41358ZM40.5028 6.41358C40.6661 6.32711 40.8448 6.27365 41.0287 6.25625C41.2126 6.23885 41.3981 6.25786 41.5747 6.31219C41.7512 6.36651 41.9153 6.45509 42.0577 6.57287C42.2 6.69064 42.3177 6.8353 42.4041 6.99858C44.1141 10.2346 45.0054 13.8404 45 17.5005C45.0054 21.1606 44.1141 24.7663 42.4041 28.0023C42.2295 28.332 41.9312 28.5789 41.5746 28.6886C41.2181 28.7983 40.8325 28.7619 40.5028 28.5873C40.1731 28.4128 39.9263 28.1144 39.8166 27.7579C39.7069 27.4013 39.7433 27.0158 39.9178 26.6861C41.4134 23.8556 42.1927 20.7018 42.1875 17.5005C42.1875 14.1817 41.3663 11.0542 39.9178 8.31483C39.8314 8.15159 39.7779 7.97291 39.7605 7.78901C39.7431 7.6051 39.7621 7.41957 39.8164 7.24301C39.8708 7.06645 39.9593 6.90232 40.0771 6.76001C40.1949 6.61769 40.3396 6.49997 40.5028 6.41358ZM8.59784 10.5648C8.77001 10.632 8.92727 10.7324 9.06062 10.8603C9.19396 10.9883 9.30078 11.1413 9.37496 11.3105C9.44914 11.4798 9.48924 11.662 9.49295 11.8468C9.49666 12.0315 9.46391 12.2152 9.39659 12.3873C8.76079 14.017 8.4355 15.7512 8.43752 17.5005C8.43752 19.3061 8.77502 21.0301 9.39377 22.6136C9.47226 22.7874 9.51456 22.9754 9.51812 23.166C9.52168 23.3567 9.48641 23.5461 9.41447 23.7228C9.34253 23.8994 9.23541 24.0595 9.09963 24.1935C8.96385 24.3274 8.80225 24.4323 8.62466 24.5018C8.44706 24.5713 8.25718 24.604 8.06657 24.5978C7.87596 24.5916 7.68859 24.5467 7.51587 24.4659C7.34315 24.385 7.18868 24.2699 7.06185 24.1274C6.93503 23.985 6.83851 23.8182 6.77815 23.6373C6.01446 21.6815 5.62336 19.6001 5.62502 17.5005C5.62502 15.3376 6.03284 13.2676 6.77815 11.3636C6.91376 11.0165 7.18156 10.7375 7.52274 10.5877C7.86392 10.438 8.25059 10.4297 8.59784 10.5648V10.5648ZM36.4022 10.5648C36.5743 10.4975 36.758 10.4648 36.9428 10.4685C37.1275 10.4722 37.3098 10.5123 37.479 10.5865C37.6483 10.6606 37.8013 10.7675 37.9292 10.9008C38.0572 11.0341 38.1576 11.1914 38.2247 11.3636C38.9672 13.2676 39.375 15.3376 39.375 17.5005C39.375 19.6633 38.9672 21.7333 38.2219 23.6373C38.0735 23.9659 37.8046 24.225 37.4707 24.361C37.1368 24.497 36.7634 24.4996 36.4277 24.3681C36.092 24.2367 35.8195 23.9814 35.6667 23.6549C35.5138 23.3284 35.4922 22.9556 35.6063 22.6136C36.225 21.0301 36.5625 19.3061 36.5625 17.5005C36.5625 15.6948 36.225 13.9708 35.6063 12.3873C35.4701 12.0401 35.4775 11.653 35.6268 11.3112C35.7761 10.9695 36.055 10.701 36.4022 10.5648V10.5648Z" fill="white"/>
</svg>
