<svg width="71" height="71" viewBox="0 0 71 71" fill="none" xmlns="http://www.w3.org/2000/svg">
<path d="M54.6227 64.7461C55.1006 64.495 55.5009 64.1182 55.7804 63.6562C56.0598 63.1943 56.2078 62.6649 56.2084 62.125L56.2084 8.87498C56.2061 8.3361 56.0571 7.80802 55.7772 7.34754C55.4973 6.88705 55.0971 6.51158 54.6198 6.2615C54.1424 6.01142 53.6059 5.89619 53.068 5.92821C52.5301 5.96023 52.0111 6.13829 51.5668 6.44323L13.1084 33.0682C12.7142 33.3396 12.392 33.7028 12.1693 34.1264C11.9467 34.55 11.8303 35.0214 11.8303 35.5C11.8303 35.9786 11.9467 36.4499 12.1693 36.8736C12.392 37.2972 12.7142 37.6603 13.1084 37.9317L51.5668 64.5567C52.0101 64.8647 52.5295 65.0451 53.0683 65.0785C53.6071 65.1119 54.1447 64.9969 54.6227 64.7461ZM19.9895 35.5L50.2917 14.5195L50.2917 56.4805L19.9895 35.5Z" fill="#FF6450"/>
</svg>
