<svg width="40" height="40" viewBox="0 0 40 40" fill="none" xmlns="http://www.w3.org/2000/svg">
<path d="M20 0.625C8.95161 0.625 0 9.29688 0 20C0 30.7031 8.95161 39.375 20 39.375C31.0484 39.375 40 30.7031 40 20C40 9.29688 31.0484 0.625 20 0.625ZM29.8226 13.8984L26.5403 28.8828C26.2984 29.9453 25.6452 30.2031 24.7339 29.7031L19.7339 26.1328L17.3226 28.3828C17.0565 28.6406 16.8306 28.8594 16.3145 28.8594L16.6694 23.9297L25.9355 15.8203C26.3387 15.4766 25.8468 15.2812 25.3145 15.625L13.8629 22.6094L8.92742 21.1172C7.85484 20.7891 7.83065 20.0781 9.15323 19.5781L28.4355 12.375C29.3306 12.0625 30.1129 12.5859 29.8226 13.8984Z" fill="#FF5094"/>
</svg>
