<svg width="41" height="40" viewBox="0 0 41 40" fill="none" xmlns="http://www.w3.org/2000/svg">
<g clip-path="url(#clip0)">
<path d="M10.0896 22.5057H11.7178V30.4407H13.279V22.5057H14.9072V21.1649H10.0896V22.5057Z" fill="#FF5094"/>
<path d="M18.3202 28.7924C18.0525 29.1001 17.1381 29.7155 17.1381 28.8363V23.5829H15.7552V29.3199C15.7552 31.0564 17.5172 30.5948 18.3425 29.6936V30.4409H19.7253V23.5829H18.3425V28.7924H18.3202Z" fill="#FF5094"/>
<path d="M23.473 23.5388C22.67 23.5388 22.157 24.1323 22.157 24.1323V21.1429H20.7519V30.4407H22.157V29.9132C22.157 29.9132 22.6254 30.5287 23.473 30.5287C24.209 30.5287 24.7666 29.8912 24.7666 29.012V25.2093C24.7666 24.1762 24.2759 23.5388 23.473 23.5388ZM23.3168 28.8362C23.3168 29.3417 22.96 29.5835 22.4916 29.3857C22.3651 29.3274 22.2515 29.2452 22.157 29.1439V24.8796C22.2463 24.7917 22.3578 24.7258 22.447 24.6598C22.9377 24.418 23.3168 24.7917 23.3168 25.2973V28.8362Z" fill="#FF5094"/>
<path d="M28.4688 28.4845C28.4688 29.012 28.1789 29.3637 27.8443 29.3857C27.4874 29.4076 27.1306 29.1219 27.1306 28.4845V27.1876H29.7847V25.4291C29.7916 25.1614 29.7438 24.895 29.6441 24.6458C29.5445 24.3966 29.3951 24.1696 29.2048 23.9784C28.8212 23.6335 28.319 23.445 27.7997 23.4509C27.309 23.4509 26.796 23.6047 26.3945 23.9125C25.9708 24.2422 25.7031 24.7477 25.7031 25.4291V28.5064C25.7031 29.1219 25.9039 29.6055 26.2161 29.9572C26.5953 30.3528 27.1083 30.5726 27.6436 30.5946C28.2904 30.6166 28.9818 30.3528 29.3833 29.8033C29.6286 29.4736 29.7847 29.034 29.7847 28.5064V28.1547H28.4688V28.4845ZM27.1306 25.4291C27.1306 25.0555 27.3536 24.6159 27.7774 24.6159C28.2012 24.6159 28.4688 25.0115 28.4688 25.4291V26.1325H27.1306V25.4291Z" fill="#FF5094"/>
<path d="M20.1109 0.217316C17.4747 0.21746 14.8643 0.729323 12.4288 1.72368C9.99325 2.71804 7.78032 4.17542 5.91632 6.01261C4.05232 7.8498 2.57376 10.0308 1.56505 12.4311C0.556338 14.8315 0.0372376 17.4041 0.0373841 20.0021C0.0375305 22.6002 0.556922 25.1727 1.5659 27.5729C2.57488 29.9732 4.05369 32.154 5.9179 33.991C7.78211 35.828 9.9952 37.2851 12.4308 38.2792C14.8665 39.2733 17.4769 39.7849 20.1131 39.7847C25.4373 39.7844 30.5432 37.6998 34.3077 33.9894C38.0723 30.2791 40.187 25.2469 40.1867 19.9999C40.1864 14.753 38.0711 9.72101 34.3062 6.01105C30.5412 2.30109 25.435 0.217024 20.1109 0.217316ZM23.6349 7.6248H25.4193V13.5156C25.4193 13.8893 25.5977 13.8893 25.6646 13.8893C25.9322 13.8893 26.3337 13.6035 26.5344 13.4057V7.60282H28.3188V15.384H26.5344V14.7026C26.2891 14.9224 26.0438 15.0982 25.7984 15.2301C25.4639 15.406 25.1516 15.4719 24.8393 15.4719C24.6684 15.48 24.4977 15.4507 24.3396 15.3861C24.1815 15.3214 24.0399 15.2232 23.9249 15.0982C23.7242 14.8564 23.6349 14.4828 23.6349 14.0212V7.6248ZM17.9474 9.66901C17.9474 8.46007 18.9511 7.47094 20.1778 7.47094C21.4045 7.47094 22.4082 8.46007 22.4082 9.66901V13.4057C22.4082 14.6147 21.4045 15.6038 20.1778 15.6038C18.9511 15.6038 17.9474 14.6147 17.9474 13.4057V9.66901ZM13.3082 4.94316L14.3788 8.81176L15.4717 4.94316H17.5014L15.4048 11.0538V15.384H13.4197V11.0538L11.2786 4.94316H13.3082ZM30.9283 32.5069C29.7908 33.606 20.1555 33.6279 20.1555 33.6279C20.1555 33.6279 10.5425 33.606 9.38273 32.5069C8.24523 31.4079 8.24523 25.9347 8.24523 25.8907C8.24523 25.8688 8.24523 20.3956 9.38273 19.2746C10.5202 18.1755 20.1555 18.1535 20.1555 18.1535C20.1555 18.1535 29.7685 18.1755 30.9283 19.2746C32.0658 20.3736 32.0881 25.8468 32.0881 25.8907C32.0881 25.8907 32.0881 31.3859 30.9283 32.5069Z" fill="#FF5094"/>
<path d="M20.1267 14.175C20.5059 14.175 20.6843 13.9552 20.7066 13.6035V9.42716C20.7066 9.14142 20.4167 8.89963 20.149 8.89963C19.8814 8.89963 19.5914 9.11944 19.5914 9.42716V13.6035C19.5914 13.9332 19.7476 14.153 20.1267 14.175Z" fill="#FF5094"/>
</g>
<defs>
<clipPath id="clip0">
<rect width="40.5714" height="40" fill="white"/>
</clipPath>
</defs>
</svg>
